# xmcd
#
# Track frame offsets: 
#        150
#        9524
#        31321
#        52764
#        69310
#        85785
#        101441
#        115827
#        135258
#        151069
#        166405
#        181632
#        203671
#        221322
#        229509
#        247515
#        271971
#        287041
#
# Disc length: 4018 seconds
#
# Revision: 0
# Processed by: cddbd v1.5.2PL0 Copyright (c) Steve Scherf et al.
# Submitted via: ExactAudioCopy v1.0b1
#
DISCID=ce0fb012
DTITLE=Various Artist - 오페라 스타 2011-CD1
DYEAR=2011
DGENRE=Classical
TTITLE0=베르디 - 리골레토 '여자의 마음은' - 롤란도 빌라존
TTITLE1=비제 - 카르멘 '투우사의 노래 (여러분의 건배에 보답하리라)' - 토마스 햄프슨
TTITLE2=로시니 - 세빌리아의 이발사 '나는 거리의 만물박사' - 티토 곱비
TTITLE3=모차르트 - 피가로의 결혼 '이제는 날지 못하리' - 토마스 알렌
TTITLE4=레하르 - 미소의 나라 '그대는 나의 모든 것' - 프리츠 분덜리히
TTITLE5=어구스틴 라라 - '그라나다' - 니콜라이 게다
TTITLE6=에두아르도 디 카푸아 - '오 나의 태양' - 알피 보
TTITLE7=루치오 달라 - '카루소' - 알피 보
TTITLE8=카르딜로 - '무정한 마음' - 프랑코 코벨리
TTITLE9=푸치니 - 투란도트 '공주는 잠 못 이루고' - 플라시도 도밍고
TTITLE10=푸치니 - 토스카 '별은 빛나건만' - 프랑코 코렐리
TTITLE11=도니제티 - 사랑의 묘약 '남 몰래 흘리는 눈물' - 니콜라이 게다
TTITLE12=레온카발로 - 팔리아치 '의상을 입어라' - 호세 카레라스
TTITLE13=러시아 민요 :`'검은 눈동자'-디미테르 페트코프
TTITLE14=요한 슈트라우스 2세 - '아름답고 푸른 도나우' - 빈 소년 합창단
TTITLE15=더 작은 소리로 말해요'(영화 대부 테마곡) - 아모리 바실리
TTITLE16=데 쿠르티스 - '물망초(나를 잊지 말아요)' - 베냐미노 질리
TTITLE17=더 작은 소리로 말해요'(영화 대부 테마곡) - 아모리 바실리
EXTD=
EXTT0=
EXTT1=
EXTT2=
EXTT3=
EXTT4=
EXTT5=
EXTT6=
EXTT7=
EXTT8=
EXTT9=
EXTT10=
EXTT11=
EXTT12=
EXTT13=
EXTT14=
EXTT15=
EXTT16=
EXTT17=
PLAYORDER=
